<svg id="svg" xmlns="http://www.w3.org/2000/svg" xmlns:xlink="http://www.w3.org/1999/xlink" width="400" height="399.43502824858757" viewBox="0, 0, 400,399.43502824858757"><g id="svgg"><path id="path0" d="M123.077 243.956 L 123.077 264.535 128.671 264.535 L 134.266 264.535 134.266 263.569 C 134.266 261.402,134.642 261.256,136.384 262.747 C 145.851 270.851,157.603 257.573,153.598 243.298 C 151.465 235.697,141.516 233.212,136.088 238.925 C 134.395 240.707,134.279 240.216,134.272 231.269 L 134.266 223.377 128.671 223.377 L 123.077 223.377 123.077 243.956 M161.172 224.175 C 156.126 226.752,157.976 233.265,163.876 233.692 C 169.134 234.072,172.337 230.695,170.628 226.571 C 169.437 223.695,164.543 222.455,161.172 224.175 M50.446 245.055 L 50.549 264.336 56.344 264.336 L 62.138 264.336 62.338 255.087 L 62.537 245.838 66.334 253.240 C 68.422 257.310,70.628 261.517,71.237 262.588 L 72.344 264.535 79.129 264.535 C 82.861 264.535,85.914 264.380,85.914 264.191 C 85.914 264.001,83.307 259.500,80.120 254.187 C 76.933 248.874,74.326 244.361,74.326 244.159 C 74.326 243.839,82.705 229.592,84.542 226.788 L 85.207 225.774 78.268 225.788 L 71.329 225.801 66.866 234.879 L 62.403 243.956 62.370 234.865 L 62.338 225.774 56.340 225.774 L 50.342 225.774 50.446 245.055 M226.973 237.736 C 226.973 253.691,227.672 256.937,231.961 260.890 C 237.994 266.451,251.148 266.334,256.813 260.669 C 260.633 256.849,261.339 253.220,261.339 237.386 L 261.339 225.774 255.565 225.774 L 249.792 225.774 249.671 238.462 C 249.525 253.823,249.142 254.945,244.048 254.945 C 239.287 254.945,238.788 253.408,238.636 238.262 L 238.510 225.774 232.742 225.774 L 226.973 225.774 226.973 237.736 M265.734 230.159 L 265.734 234.543 271.229 234.654 L 276.723 234.765 276.828 249.650 L 276.933 264.535 282.517 264.535 L 288.102 264.535 288.207 249.650 L 288.312 234.765 293.806 234.654 L 299.301 234.543 299.301 230.159 L 299.301 225.774 282.517 225.774 L 265.734 225.774 265.734 230.159 M304.496 245.155 L 304.496 264.535 309.928 264.535 L 315.360 264.535 315.223 253.546 C 315.147 247.502,315.191 242.557,315.320 242.557 C 315.450 242.557,319.220 247.508,323.699 253.558 L 331.843 264.558 336.850 264.447 L 341.858 264.336 341.962 245.055 L 342.066 225.774 336.667 225.774 L 331.269 225.774 331.269 236.164 C 331.269 245.957,331.093 247.589,330.231 245.808 C 330.032 245.398,326.639 240.723,322.689 235.418 L 315.509 225.774 310.002 225.774 L 304.496 225.774 304.496 245.155 M87.655 236.769 C 87.161 238.057,87.815 256.267,88.432 258.422 C 90.381 265.219,97.997 267.207,103.418 262.332 C 105.895 260.105,105.894 260.105,105.894 262.548 L 105.894 264.557 111.588 264.447 L 117.283 264.336 117.388 250.458 L 117.493 236.581 116.589 236.357 C 116.091 236.233,113.526 236.184,110.889 236.248 L 106.094 236.364 105.886 245.355 C 105.635 256.182,105.514 256.543,102.133 256.543 C 99.551 256.543,99.331 255.731,99.101 245.374 L 98.901 236.364 93.398 236.252 C 88.697 236.157,87.861 236.233,87.655 236.769 M159.318 236.419 C 159.166 236.572,159.041 242.960,159.041 250.616 L 159.041 264.535 164.640 264.535 L 170.240 264.535 170.135 250.450 L 170.030 236.364 164.813 236.253 C 161.944 236.192,159.471 236.267,159.318 236.419 M174.387 236.806 C 174.632 237.444,178.666 244.038,181.277 248.067 C 182.057 249.271,182.520 250.389,182.353 250.665 C 182.192 250.931,180.243 253.936,178.022 257.343 C 175.801 260.749,173.848 263.761,173.682 264.036 C 173.445 264.428,174.790 264.535,179.907 264.535 L 186.434 264.535 188.084 260.639 C 188.992 258.497,189.836 256.429,189.960 256.044 C 190.365 254.784,190.788 255.307,192.386 259.047 C 194.960 265.072,194.075 264.535,201.445 264.535 C 204.936 264.535,207.791 264.401,207.790 264.236 C 207.788 264.071,207.421 263.397,206.973 262.737 C 205.290 260.260,199.267 249.948,199.267 249.545 C 199.267 249.153,205.381 239.926,207.044 237.808 C 208.293 236.218,208.021 236.139,201.703 236.253 L 195.614 236.364 195.038 237.562 C 194.721 238.222,193.883 240.173,193.175 241.897 C 191.847 245.136,191.009 246.449,191.009 245.290 C 191.009 244.947,190.113 242.754,189.019 240.415 L 187.028 236.164 180.584 236.164 C 174.832 236.164,174.167 236.233,174.387 236.806 M140.681 244.567 C 143.414 246.030,143.365 253.964,140.613 255.892 C 138.621 257.287,136.151 256.674,135.048 254.512 C 132.283 249.092,136.204 242.171,140.681 244.567 " stroke="none" fill="#f43d35" fill-rule="evenodd"></path><path id="path1" d="M188.012 12.419 C 180.926 12.691,170.166 13.713,167.433 14.374 C 166.663 14.560,165.135 14.834,164.036 14.984 C 155.989 16.078,138.051 20.990,128.272 24.778 C 127.063 25.247,125.445 25.869,124.675 26.161 C 105.177 33.566,81.895 48.714,64.246 65.479 C 34.812 93.438,12.628 136.874,7.993 175.624 C 7.757 177.602,7.481 179.494,7.380 179.828 C 6.982 181.150,6.006 197.528,6.011 202.797 C 6.036 228.328,12.124 257.458,21.822 278.457 C 22.567 280.070,23.177 281.477,23.177 281.582 C 23.177 283.028,32.285 299.590,37.012 306.738 C 89.058 385.456,186.443 414.380,273.412 376.950 C 329.370 352.867,373.389 297.501,383.596 238.362 C 388.451 210.238,387.891 184.901,381.840 158.841 C 380.028 151.036,375.515 136.730,373.268 131.668 C 373.073 131.229,372.058 128.891,371.014 126.474 C 368.606 120.898,364.660 112.995,362.281 108.980 C 361.268 107.270,360.440 105.793,360.440 105.697 C 360.440 105.601,359.428 103.943,358.192 102.012 C 320.076 42.490,257.858 9.735,188.012 12.419 M170.189 119.736 C 170.989 120.297,171.856 120.354,176.172 120.132 C 205.715 118.608,214.572 120.197,230.769 129.926 C 231.429 130.322,232.507 130.920,233.167 131.256 C 233.826 131.592,234.841 132.182,235.421 132.567 C 236.002 132.952,237.482 133.862,238.710 134.590 C 239.938 135.318,241.046 136.082,241.174 136.288 C 241.303 136.497,244.371 136.671,248.076 136.681 C 254.613 136.698,256.035 136.815,264.535 138.032 C 272.634 139.192,285.486 142.093,286.713 143.039 C 286.933 143.208,287.577 143.457,288.145 143.592 C 292.494 144.628,293.483 147.349,293.112 157.254 C 292.723 167.611,293.255 167.028,283.217 168.098 C 281.369 168.295,280.919 168.483,280.919 169.056 C 280.919 169.875,278.605 173.078,276.777 174.789 C 270.372 180.786,258.395 178.381,254.489 170.314 L 253.634 168.547 212.431 168.681 C 189.770 168.754,171.023 168.685,170.772 168.526 C 170.486 168.346,170.214 168.640,170.046 169.310 C 169.749 170.494,167.883 173.057,166.148 174.664 C 165.113 175.624,164.504 175.976,161.276 177.480 C 154.621 180.583,144.668 175.143,142.477 167.204 C 142.264 166.432,141.786 166.343,135.520 165.907 C 131.819 165.650,127.512 165.151,125.949 164.798 C 123.065 164.146,122.906 164.041,119.680 160.658 L 118.082 158.981 117.941 154.266 C 117.799 149.480,118.625 145.854,119.858 145.854 C 120.110 145.854,120.280 144.832,120.280 143.316 C 120.280 141.921,120.478 140.209,120.721 139.512 C 121.052 138.562,121.044 138.102,120.688 137.673 C 120.314 137.222,120.368 136.837,120.941 135.866 C 121.787 134.434,121.946 134.390,127.391 134.088 C 133.410 133.754,138.506 132.793,141.259 131.472 C 142.577 130.839,144.825 129.852,146.254 129.279 C 147.682 128.705,149.211 128.074,149.650 127.876 C 152.278 126.693,154.231 125.874,154.426 125.874 C 154.680 125.874,161.250 123.364,163.536 122.393 C 164.606 121.939,165.035 121.511,165.035 120.898 C 165.035 119.067,168.211 118.351,170.189 119.736 M178.222 123.895 C 161.972 125.729,155.152 129.466,159.155 134.345 C 160.900 136.472,161.914 136.631,176.511 137.063 C 183.935 137.283,191.036 137.575,192.291 137.712 L 194.571 137.962 194.381 136.613 C 194.277 135.872,194.009 134.186,193.787 132.867 C 193.564 131.548,193.176 128.896,192.925 126.973 L 192.467 123.477 186.643 123.539 C 183.440 123.574,179.650 123.734,178.222 123.895 M197.802 123.701 C 197.802 124.358,201.538 135.368,202.302 136.963 L 202.732 137.862 214.653 137.862 L 226.573 137.862 226.573 136.637 C 226.573 135.118,227.212 133.866,227.986 133.866 C 229.347 133.866,228.541 133.131,224.376 130.573 C 217.764 126.514,215.864 125.878,204.396 123.882 C 202.109 123.485,197.802 123.366,197.802 123.701 M152.514 154.690 C 143.124 159.644,146.228 173.427,156.734 173.427 C 160.523 173.427,165.096 170.317,165.710 167.324 C 165.835 166.715,166.094 166.120,166.285 166.002 C 166.841 165.659,166.689 162.756,166.005 160.666 C 164.218 155.203,157.327 152.150,152.514 154.690 M263.280 154.650 C 255.653 158.680,255.845 169.184,263.609 172.618 C 273.154 176.841,281.620 164.883,274.650 157.023 C 272.018 154.055,266.562 152.916,263.280 154.650 M155.364 157.374 C 155.506 160.327,155.134 160.480,152.964 158.360 C 151.096 156.536,151.095 156.449,152.947 155.473 C 155.011 154.385,155.228 154.555,155.364 157.374 M160.165 155.454 C 162.233 156.453,162.232 156.490,160.094 158.588 C 158.112 160.533,157.842 160.352,157.842 157.077 C 157.842 154.399,157.899 154.359,160.165 155.454 M266.134 157.243 C 266.134 160.335,265.747 160.505,263.633 158.340 C 262.049 156.719,262.091 156.301,263.936 155.349 C 265.991 154.288,266.134 154.412,266.134 157.243 M271.029 155.427 C 271.853 155.745,272.527 156.202,272.527 156.443 C 272.527 157.161,269.439 159.954,268.967 159.663 C 268.151 159.158,268.483 154.335,269.306 154.739 C 269.429 154.800,270.205 155.109,271.029 155.427 M151.330 159.919 C 153.277 161.806,153.076 162.238,150.250 162.238 C 147.585 162.238,147.365 161.941,148.462 159.820 C 149.236 158.323,149.700 158.339,151.330 159.919 M164.856 160.027 C 165.741 162.146,165.657 162.238,162.837 162.238 C 159.808 162.238,159.765 162.158,161.719 160.157 C 163.549 158.284,164.117 158.260,164.856 160.027 M262.291 160.241 C 264.148 162.296,264.181 162.238,261.139 162.238 C 258.244 162.238,258.040 161.984,259.241 159.875 C 260.153 158.272,260.556 158.321,262.291 160.241 M275.778 160.440 L 276.424 162.238 273.628 162.238 C 270.536 162.238,270.551 162.291,272.914 159.751 C 274.361 158.197,275.029 158.357,275.778 160.440 M157.243 160.639 C 157.243 160.963,156.928 161.288,156.543 161.362 C 156.053 161.457,155.844 161.241,155.844 160.639 C 155.844 160.038,156.053 159.822,156.543 159.916 C 156.928 159.990,157.243 160.316,157.243 160.639 M268.132 160.639 C 268.132 161.079,267.873 161.439,267.556 161.439 C 266.850 161.439,266.399 160.781,266.733 160.240 C 267.168 159.537,268.132 159.812,268.132 160.639 M268.925 163.351 C 268.909 165.113,266.899 165.631,265.975 164.111 C 265.617 163.523,265.710 163.242,266.471 162.618 C 267.541 161.740,268.936 162.156,268.925 163.351 M141.959 163.636 C 141.963 164.515,142.045 164.828,142.141 164.331 C 142.236 163.834,142.233 163.115,142.133 162.733 C 142.033 162.351,141.954 162.757,141.959 163.636 M158.118 162.891 C 158.505 163.899,157.680 164.835,156.405 164.835 C 155.122 164.835,154.640 163.806,155.460 162.818 C 156.111 162.035,157.807 162.082,158.118 162.891 M154.344 163.137 C 154.619 163.885,154.253 164.635,153.613 164.635 C 153.302 164.635,153.047 164.306,153.047 163.903 C 153.047 162.705,153.982 162.153,154.344 163.137 M160.046 164.201 C 159.494 164.753,159.365 164.759,159.049 164.249 C 158.516 163.386,159.360 162.472,160.113 163.098 C 160.599 163.501,160.590 163.657,160.046 164.201 M265.105 163.304 C 265.445 164.190,264.694 164.954,264.083 164.343 C 263.594 163.853,263.877 162.637,264.480 162.637 C 264.683 162.637,264.965 162.937,265.105 163.304 M271.029 164.296 C 270.313 165.012,269.144 163.943,269.791 163.164 C 270.195 162.677,270.348 162.684,270.878 163.214 C 271.347 163.683,271.383 163.942,271.029 164.296 M152.647 165.556 C 152.647 167.731,148.969 169.119,148.246 167.217 C 147.489 165.227,147.665 165.035,150.250 165.035 C 151.954 165.035,152.647 165.186,152.647 165.556 M165.435 165.447 C 165.435 168.400,163.615 169.169,161.685 167.032 C 159.828 164.977,159.795 165.035,162.837 165.035 C 164.356 165.035,165.435 165.206,165.435 165.447 M263.337 165.515 C 263.337 166.154,260.915 168.631,260.291 168.631 C 259.770 168.631,258.541 166.483,258.541 165.573 C 258.541 165.182,259.196 165.035,260.939 165.035 C 262.540 165.035,263.337 165.195,263.337 165.515 M276.124 165.375 C 276.124 166.109,275.170 168.447,274.760 168.719 C 274.313 169.015,271.329 166.157,271.329 165.434 C 271.329 165.213,272.398 165.035,273.726 165.035 C 275.045 165.035,276.124 165.188,276.124 165.375 M157.243 166.633 C 157.243 166.957,156.928 167.282,156.543 167.356 C 156.053 167.451,155.844 167.235,155.844 166.633 C 155.844 166.032,156.053 165.816,156.543 165.910 C 156.928 165.984,157.243 166.310,157.243 166.633 M268.132 166.633 C 268.132 167.073,267.873 167.433,267.556 167.433 C 266.850 167.433,266.399 166.775,266.733 166.234 C 267.168 165.531,268.132 165.806,268.132 166.633 M155.445 170.030 C 155.445 172.945,155.247 173.092,152.861 171.954 C 151.114 171.121,151.115 171.066,152.913 169.064 C 155.008 166.730,155.445 166.896,155.445 170.030 M160.323 168.912 C 162.227 170.772,162.217 171.076,160.216 171.943 C 158.127 172.848,157.842 172.624,157.842 170.073 C 157.842 166.939,158.153 166.793,160.323 168.912 M266.134 170.030 C 266.134 172.985,265.749 173.242,263.437 171.833 C 261.812 170.842,261.807 170.885,263.769 169.000 C 265.942 166.911,266.134 166.995,266.134 170.030 M271.012 168.912 C 272.917 170.772,272.906 171.076,270.906 171.943 C 268.816 172.848,268.531 172.624,268.531 170.073 C 268.531 166.939,268.842 166.793,271.012 168.912 M134.665 230.969 C 134.665 235.365,134.768 238.961,134.893 238.961 C 135.018 238.961,135.917 238.413,136.891 237.743 C 147.705 230.303,157.785 240.739,154.009 255.465 C 151.772 264.186,141.166 268.650,136.110 262.998 C 135.215 261.997,134.665 262.214,134.665 263.571 L 134.665 264.557 128.771 264.446 L 122.877 264.336 122.773 244.156 C 122.716 233.057,122.755 223.751,122.861 223.477 C 123.001 223.109,124.582 222.977,128.859 222.977 L 134.665 222.977 134.665 230.969 M167.995 223.760 C 170.219 224.714,171.425 226.499,171.427 228.840 C 171.432 234.350,161.779 236.319,158.889 231.397 C 155.803 226.141,161.806 221.107,167.995 223.760 M62.338 233.543 C 62.338 242.907,62.474 243.249,64.532 239.049 C 65.363 237.352,67.204 233.581,68.625 230.669 L 71.207 225.375 78.361 225.375 C 82.295 225.375,85.514 225.478,85.514 225.605 C 85.514 225.732,84.481 227.537,83.217 229.617 C 81.953 231.696,80.739 233.705,80.519 234.081 C 80.300 234.457,78.906 236.769,77.423 239.218 C 74.182 244.568,74.217 243.779,77.023 248.403 C 81.758 256.206,82.614 257.628,84.631 261.039 L 86.699 264.535 79.214 264.526 L 71.728 264.516 70.622 262.228 C 70.014 260.970,68.829 258.681,67.990 257.143 C 67.151 255.604,65.648 252.780,64.649 250.868 C 62.323 246.411,62.338 246.377,62.338 256.210 L 62.338 264.535 56.344 264.535 L 50.350 264.535 50.350 244.955 L 50.350 225.375 56.344 225.375 L 62.338 225.375 62.338 233.543 M238.961 237.678 C 238.961 253.251,239.506 254.850,244.668 254.420 C 248.942 254.064,249.351 252.538,249.351 236.943 L 249.351 225.375 255.573 225.375 L 261.795 225.375 261.632 238.861 C 261.392 258.792,259.983 261.734,249.151 264.924 C 244.045 266.427,235.325 264.593,231.743 261.264 C 227.266 257.102,226.835 255.203,226.656 238.861 L 226.509 225.375 232.735 225.375 L 238.961 225.375 238.961 237.678 M299.613 230.070 L 299.500 234.765 294.206 234.877 L 288.911 234.988 288.911 249.762 L 288.911 264.535 282.517 264.535 L 276.124 264.535 276.124 249.750 L 276.124 234.965 271.361 234.965 C 264.905 234.965,265.335 235.305,265.335 230.194 C 265.335 227.836,265.455 225.788,265.601 225.641 C 265.748 225.495,273.486 225.375,282.797 225.375 L 299.726 225.375 299.613 230.070 M318.947 229.859 C 320.779 232.325,323.986 236.621,326.074 239.407 C 328.162 242.192,330.084 244.805,330.346 245.213 C 330.722 245.797,330.827 243.781,330.846 235.664 L 330.869 225.375 336.663 225.375 L 342.458 225.375 342.458 244.955 L 342.458 264.535 336.912 264.535 L 331.366 264.535 324.824 255.709 C 321.226 250.855,317.607 245.967,316.783 244.848 L 315.285 242.813 315.285 253.674 L 315.285 264.535 309.690 264.535 L 304.096 264.535 304.096 244.955 L 304.096 225.375 309.856 225.375 L 315.616 225.375 318.947 229.859 M99.500 244.975 C 99.500 251.926,99.624 254.025,100.085 254.916 C 101.033 256.749,102.660 257.046,104.296 255.687 L 105.295 254.856 105.415 245.510 L 105.536 236.164 111.509 236.164 L 117.483 236.164 117.483 250.350 L 117.483 264.535 111.489 264.535 L 105.495 264.535 105.495 262.676 L 105.495 260.816 104.039 262.315 C 100.299 266.166,93.609 266.335,90.291 262.662 C 87.828 259.936,87.723 259.339,87.589 247.253 L 87.466 236.164 93.483 236.164 L 99.500 236.164 99.500 244.975 M170.629 250.350 L 170.629 264.535 164.635 264.535 L 158.641 264.535 158.641 250.350 L 158.641 236.164 164.635 236.164 L 170.629 236.164 170.629 250.350 M189.202 240.005 C 190.196 242.118,191.009 244.006,191.009 244.201 C 191.009 245.033,191.751 244.453,192.217 243.257 C 192.496 242.542,193.319 240.654,194.047 239.061 L 195.371 236.164 201.782 236.164 C 205.307 236.164,208.192 236.261,208.192 236.381 C 208.192 236.500,206.223 239.494,203.817 243.034 C 199.551 249.311,199.457 249.497,200.037 250.510 C 200.676 251.627,200.945 252.080,205.195 259.212 C 206.733 261.793,208.052 264.047,208.125 264.220 C 208.198 264.394,205.097 264.535,201.232 264.535 C 197.026 264.535,194.206 264.382,194.206 264.153 C 194.206 263.943,193.488 262.280,192.611 260.457 C 191.734 258.634,191.014 256.918,191.012 256.643 C 191.005 255.591,190.251 256.211,189.797 257.642 C 189.535 258.467,189.106 259.500,188.843 259.940 C 188.580 260.380,188.046 261.593,187.656 262.637 L 186.947 264.535 180.187 264.535 C 176.182 264.535,173.427 264.381,173.427 264.156 C 173.427 263.947,175.396 260.763,177.804 257.080 L 182.181 250.385 181.333 248.969 C 179.041 245.142,175.262 239.042,174.586 238.078 C 173.271 236.204,173.399 236.164,180.610 236.164 L 187.394 236.164 189.202 240.005 M136.826 244.944 C 134.632 245.831,133.833 251.994,135.577 254.581 C 138.303 258.626,142.253 256.053,142.256 250.230 C 142.259 245.379,140.349 243.520,136.826 244.944 " stroke="none" fill="#fbfbfb" fill-rule="evenodd"></path><path id="path2" d="M165.934 119.745 C 165.659 119.856,165.435 120.359,165.435 120.863 C 165.435 122.109,165.159 122.274,159.441 124.464 C 151.901 127.352,143.941 130.643,141.271 131.976 C 138.670 133.274,134.188 134.077,126.572 134.608 C 121.663 134.950,121.309 135.160,121.204 137.784 C 120.985 143.271,120.572 145.663,119.655 146.755 C 117.761 149.009,117.777 158.592,119.677 159.976 C 120.241 160.386,120.964 161.229,121.284 161.849 C 122.376 163.960,130.932 165.747,140.310 165.822 L 141.758 165.834 141.960 162.537 C 142.740 149.814,157.851 144.197,167.150 153.174 C 170.417 156.328,171.981 161.016,171.431 166.009 C 171.294 167.257,171.282 168.313,171.405 168.355 C 171.528 168.397,189.880 168.385,212.188 168.328 L 252.747 168.224 252.747 163.932 C 252.747 160.063,252.855 159.424,253.837 157.443 C 261.104 142.780,282.248 147.793,282.201 164.168 L 282.190 167.897 284.252 167.639 C 291.777 166.698,292.613 166.109,292.460 161.855 C 292.408 160.417,292.602 157.437,292.890 155.232 C 294.022 146.566,291.803 144.302,279.252 141.316 C 266.921 138.382,256.718 137.063,246.351 137.063 C 242.291 137.063,241.738 136.974,240.469 136.113 C 235.847 132.976,220.086 124.502,216.384 123.164 C 208.635 120.362,196.851 119.403,180.690 120.258 C 172.182 120.709,171.108 120.695,170.030 120.122 C 168.870 119.506,166.962 119.331,165.934 119.745 M192.681 124.076 C 192.861 124.735,193.360 127.522,193.790 130.270 C 194.220 133.017,194.691 135.849,194.838 136.563 L 195.105 137.862 187.163 137.847 C 168.822 137.813,161.125 137.061,159.334 135.127 C 153.712 129.060,162.827 124.427,183.017 123.090 C 191.152 122.551,192.296 122.668,192.681 124.076 M206.993 123.886 C 215.782 125.419,217.898 126.191,224.636 130.325 C 228.716 132.828,229.951 133.866,228.849 133.866 C 227.865 133.866,226.493 135.888,226.758 136.946 L 226.988 137.862 214.583 137.862 L 202.178 137.862 201.742 136.763 C 200.812 134.420,197.877 125.608,197.615 124.376 L 197.339 123.077 199.868 123.081 C 201.259 123.083,204.466 123.446,206.993 123.886 M155.028 149.661 C 137.587 152.481,138.880 177.517,156.470 177.589 C 171.429 177.651,176.293 157.740,162.963 151.012 C 161.698 150.373,160.243 149.850,159.732 149.850 C 159.220 149.850,158.630 149.698,158.422 149.512 C 158.213 149.326,156.686 149.393,155.028 149.661 M265.717 149.663 C 253.889 151.568,249.140 165.158,257.390 173.493 C 268.357 184.573,286.897 171.827,280.230 157.790 C 278.391 153.919,273.503 149.850,270.692 149.850 C 270.354 149.850,269.774 149.699,269.404 149.514 C 269.021 149.323,267.436 149.387,265.717 149.663 M160.729 154.380 C 167.592 157.415,168.908 166.353,163.227 171.354 C 159.067 175.015,152.798 174.559,148.974 170.316 C 141.744 162.296,150.816 149.996,160.729 154.380 M271.964 154.633 C 278.849 158.092,279.469 167.795,273.086 172.195 C 269.073 174.960,262.929 174.080,259.669 170.272 C 252.449 161.837,262.034 149.645,271.964 154.633 M152.947 155.876 C 151.983 156.438,152.063 156.826,153.433 158.228 C 154.985 159.816,155.045 159.787,155.045 157.443 C 155.045 155.323,154.542 154.947,152.947 155.876 M158.242 157.443 C 158.242 159.805,158.461 159.877,160.195 158.088 L 161.506 156.736 160.584 156.090 C 158.841 154.869,158.242 155.215,158.242 157.443 M263.513 156.023 C 262.764 156.581,262.788 156.653,264.236 158.114 L 265.734 159.627 265.734 157.536 C 265.734 155.252,265.114 154.829,263.513 156.023 M268.931 157.443 C 268.931 159.815,269.147 159.880,270.928 158.043 C 272.243 156.686,272.260 156.628,271.506 156.058 C 269.808 154.773,268.931 155.244,268.931 157.443 M148.690 160.299 C 148.036 162.176,148.086 162.238,150.250 162.238 C 152.565 162.238,152.723 161.852,151.080 160.209 C 149.599 158.729,149.233 158.743,148.690 160.299 M162.252 160.226 C 160.575 161.865,160.720 162.238,163.037 162.238 C 165.244 162.238,165.235 162.249,164.555 160.368 C 163.968 158.743,163.780 158.732,162.252 160.226 M259.821 159.543 C 259.592 159.819,259.281 160.538,259.130 161.141 L 258.854 162.238 261.096 162.238 C 263.718 162.238,263.697 162.276,262.096 160.453 C 260.741 158.909,260.445 158.791,259.821 159.543 M273.005 160.359 C 271.321 162.096,271.375 162.238,273.726 162.238 C 275.897 162.238,276.113 161.930,275.261 160.059 C 274.668 158.758,274.541 158.775,273.005 160.359 M156.061 162.775 C 155.130 163.456,155.500 164.635,156.643 164.635 C 157.692 164.635,158.127 163.550,157.379 162.802 C 156.893 162.317,156.694 162.313,156.061 162.775 M266.783 162.842 C 265.859 163.528,266.198 164.635,267.333 164.635 C 268.368 164.635,268.821 163.551,268.087 162.831 C 267.619 162.372,267.415 162.373,266.783 162.842 M148.252 165.575 C 148.252 167.861,149.555 168.578,151.085 167.134 C 152.667 165.641,152.566 165.435,150.250 165.435 C 149.151 165.435,148.252 165.498,148.252 165.575 M161.039 165.648 C 161.039 165.984,163.428 168.232,163.786 168.232 C 164.124 168.232,165.035 166.469,165.035 165.815 C 165.035 165.606,164.136 165.435,163.037 165.435 C 161.938 165.435,161.039 165.531,161.039 165.648 M258.941 165.575 C 258.941 167.894,260.386 168.653,261.863 167.111 C 263.325 165.585,263.242 165.435,260.939 165.435 C 259.840 165.435,258.941 165.498,258.941 165.575 M272.927 166.833 C 274.546 168.504,274.664 168.523,275.261 167.214 C 275.996 165.599,275.848 165.435,273.648 165.435 L 271.571 165.435 272.927 166.833 M153.276 169.397 L 151.706 171.008 153.076 171.589 C 154.806 172.323,155.124 171.999,154.969 169.663 L 154.845 167.786 153.276 169.397 M158.242 169.737 C 158.242 172.021,158.862 172.443,160.463 171.250 C 161.212 170.691,161.188 170.620,159.740 169.159 L 158.242 167.646 158.242 169.737 M264.236 169.123 C 262.625 170.790,262.611 171.237,264.154 171.775 C 265.613 172.283,265.845 171.925,265.660 169.450 L 265.534 167.779 264.236 169.123 M268.931 169.843 C 268.931 171.989,269.599 172.416,271.298 171.355 C 272.030 170.898,272.023 170.838,271.072 169.591 C 269.459 167.477,268.931 167.539,268.931 169.843 " stroke="none" fill="#3d454d" fill-rule="evenodd"></path><path id="path3" d="M0.000 199.800 L 0.000 399.600 200.000 399.600 L 400.000 399.600 400.000 199.800 L 400.000 0.000 200.000 0.000 L 0.000 0.000 0.000 199.800 M217.782 13.417 C 273.269 19.789,323.156 49.869,353.923 95.504 C 356.616 99.499,360.440 105.479,360.440 105.697 C 360.440 105.793,361.268 107.270,362.281 108.980 C 364.660 112.995,368.606 120.898,371.014 126.474 C 372.058 128.891,373.073 131.229,373.268 131.668 C 375.515 136.730,380.028 151.036,381.840 158.841 C 387.891 184.901,388.451 210.238,383.596 238.362 C 372.144 304.709,320.849 362.718,254.815 383.998 C 168.609 411.779,74.002 374.573,30.294 295.704 C 27.597 290.838,23.177 282.067,23.177 281.582 C 23.177 281.477,22.567 280.070,21.822 278.457 C 12.124 257.458,6.036 228.328,6.011 202.797 C 6.006 197.528,6.982 181.150,7.380 179.828 C 7.481 179.494,7.757 177.602,7.993 175.624 C 12.628 136.874,34.812 93.438,64.246 65.479 C 81.895 48.714,105.177 33.566,124.675 26.161 C 125.445 25.869,127.063 25.247,128.272 24.778 C 138.051 20.990,155.989 16.078,164.036 14.984 C 165.135 14.834,166.663 14.560,167.433 14.374 C 176.756 12.120,202.269 11.635,217.782 13.417 M165.514 119.560 C 165.251 119.824,165.035 120.426,165.035 120.898 C 165.035 121.511,164.606 121.939,163.536 122.393 C 161.250 123.364,154.680 125.874,154.426 125.874 C 154.303 125.874,153.448 126.207,152.526 126.614 C 151.604 127.022,150.509 127.475,150.093 127.623 C 149.677 127.770,149.422 127.976,149.526 128.081 C 149.630 128.185,150.780 127.848,152.081 127.332 C 153.381 126.816,156.693 125.529,159.441 124.473 C 165.155 122.275,165.435 122.107,165.435 120.873 C 165.435 119.379,167.692 118.997,170.013 120.099 C 170.931 120.534,172.188 120.676,174.269 120.578 L 177.223 120.439 174.026 120.346 C 171.959 120.287,170.555 120.047,170.053 119.668 C 169.119 118.961,166.183 118.891,165.514 119.560 M187.892 119.778 C 189.804 119.851,193.041 119.851,195.085 119.779 C 197.129 119.706,195.564 119.646,191.608 119.646 C 187.652 119.645,185.980 119.705,187.892 119.778 M179.711 120.169 C 180.421 120.257,181.679 120.258,182.509 120.172 C 183.338 120.085,182.757 120.013,181.219 120.011 C 179.680 120.009,179.002 120.080,179.711 120.169 M200.305 120.167 C 200.913 120.259,201.812 120.256,202.303 120.161 C 202.795 120.067,202.298 119.991,201.199 119.994 C 200.100 119.997,199.698 120.075,200.305 120.167 M205.195 120.641 C 207.848 121.197,211.302 121.503,210.331 121.096 C 209.860 120.898,208.152 120.639,206.535 120.521 C 204.400 120.364,204.033 120.397,205.195 120.641 M213.187 122.145 C 214.286 122.465,215.904 123.006,216.783 123.346 C 219.503 124.397,219.612 124.426,219.181 123.980 C 218.651 123.431,212.854 121.467,211.921 121.520 C 211.518 121.543,212.088 121.824,213.187 122.145 M182.483 123.104 C 179.662 123.273,177.234 123.542,177.089 123.700 C 176.943 123.858,178.082 123.874,179.620 123.735 C 181.159 123.596,184.721 123.481,187.536 123.479 C 190.846 123.478,192.567 123.335,192.408 123.077 C 192.136 122.637,190.172 122.642,182.483 123.104 M197.409 123.776 C 197.414 124.339,197.484 124.366,197.770 123.914 C 198.052 123.469,198.935 123.399,202.060 123.576 C 204.667 123.724,205.455 123.685,204.396 123.461 C 201.315 122.809,197.402 122.986,197.409 123.776 M171.029 124.477 C 167.099 125.157,161.685 126.907,159.769 128.117 C 157.690 129.429,157.827 129.746,159.940 128.512 C 162.348 127.105,168.363 125.240,171.611 124.892 C 174.566 124.575,176.950 123.912,175.025 123.942 C 174.476 123.951,172.677 124.192,171.029 124.477 M206.593 124.214 C 206.923 124.410,208.182 124.692,209.391 124.840 C 212.725 125.249,217.247 126.610,219.742 127.956 C 223.587 130.030,227.192 132.240,228.082 133.069 C 229.076 133.995,229.695 134.140,228.981 133.279 C 228.432 132.617,221.683 128.411,219.075 127.105 C 216.284 125.707,204.532 122.985,206.593 124.214 M220.000 124.618 C 220.636 125.190,232.196 131.039,231.971 130.673 C 231.855 130.486,230.098 129.482,228.068 128.442 C 226.037 127.402,223.428 126.039,222.269 125.413 C 220.170 124.280,219.278 123.967,220.000 124.618 M192.883 127.073 C 193.013 128.501,193.273 130.030,193.460 130.470 C 193.877 131.454,193.434 126.948,192.969 125.494 C 192.776 124.887,192.741 125.526,192.883 127.073 M198.030 125.874 C 198.175 126.643,198.461 127.542,198.665 127.872 C 198.911 128.270,198.948 128.002,198.773 127.073 C 198.628 126.304,198.343 125.405,198.139 125.075 C 197.892 124.677,197.856 124.945,198.030 125.874 M146.054 129.313 C 144.735 129.868,142.577 130.844,141.259 131.483 C 139.934 132.124,137.520 132.846,135.864 133.097 C 132.010 133.680,131.644 134.027,135.265 133.666 C 137.968 133.396,138.604 133.161,147.453 129.153 C 150.033 127.985,148.905 128.114,146.054 129.313 M199.215 129.570 C 200.014 132.259,201.535 136.261,201.696 136.100 C 201.901 135.895,199.395 128.671,199.119 128.671 C 199.025 128.671,199.067 129.076,199.215 129.570 M157.716 130.708 C 157.596 131.169,157.653 131.933,157.844 132.406 C 158.124 133.100,158.196 132.937,158.216 131.568 C 158.244 129.716,158.059 129.398,157.716 130.708 M232.787 131.415 C 233.726 132.273,237.131 133.994,236.614 133.351 C 236.313 132.975,235.892 132.667,235.678 132.667 C 235.465 132.667,234.834 132.308,234.275 131.868 C 233.285 131.089,232.002 130.699,232.787 131.415 M158.256 133.691 C 158.231 134.431,160.392 136.197,161.638 136.455 C 162.787 136.693,162.779 136.676,161.439 136.062 C 160.669 135.710,159.642 134.937,159.155 134.344 C 158.669 133.752,158.264 133.458,158.256 133.691 M125.359 134.235 C 122.878 134.398,121.730 134.642,121.449 135.065 C 120.339 136.741,120.229 137.120,120.694 137.680 C 121.044 138.102,121.051 138.566,120.721 139.512 C 120.478 140.209,120.280 141.921,120.280 143.316 C 120.280 144.832,120.110 145.854,119.858 145.854 C 118.624 145.854,117.799 149.480,117.941 154.275 L 118.082 158.999 119.836 160.718 C 120.806 161.669,121.390 162.053,121.141 161.576 C 120.894 161.103,120.233 160.381,119.672 159.972 C 117.777 158.592,117.765 149.005,119.655 146.755 C 120.578 145.656,120.995 143.212,121.204 137.676 C 121.299 135.149,122.079 134.697,126.474 134.624 C 128.232 134.595,130.210 134.434,130.869 134.266 C 132.368 133.884,130.825 133.876,125.359 134.235 M226.955 134.700 C 226.320 135.885,226.642 135.961,227.491 134.826 C 227.886 134.298,228.027 133.866,227.805 133.866 C 227.583 133.866,227.200 134.241,226.955 134.700 M194.259 135.465 C 194.237 136.234,194.392 137.133,194.605 137.463 C 195.082 138.200,195.082 137.139,194.605 135.265 L 194.300 134.066 194.259 135.465 M239.534 135.423 C 239.683 135.663,240.176 136.059,240.630 136.301 C 241.221 136.618,241.378 136.619,241.185 136.306 C 241.036 136.065,240.543 135.670,240.089 135.427 C 239.498 135.110,239.341 135.109,239.534 135.423 M165.035 137.076 C 166.244 137.236,172.807 137.467,179.620 137.588 C 187.861 137.735,190.202 137.700,186.613 137.484 C 179.163 137.036,162.340 136.718,165.035 137.076 M248.551 137.044 C 252.398 137.214,256.893 137.464,258.541 137.599 C 260.902 137.793,261.284 137.756,260.340 137.426 C 259.680 137.195,255.185 136.945,250.350 136.870 L 241.558 136.734 248.551 137.044 M263.692 138.242 C 265.710 138.750,269.687 139.120,268.731 138.711 C 268.292 138.523,266.673 138.264,265.135 138.135 C 263.219 137.975,262.764 138.009,263.692 138.242 M271.129 139.463 C 272.623 139.958,277.022 140.694,277.231 140.485 C 277.399 140.317,274.103 139.619,271.528 139.278 C 270.052 139.083,270.021 139.097,271.129 139.463 M278.322 141.001 C 279.506 141.511,282.448 141.954,281.718 141.512 C 281.389 141.312,280.310 141.038,279.321 140.903 C 278.167 140.745,277.809 140.780,278.322 141.001 M284.483 142.658 C 285.675 143.096,286.734 143.370,286.837 143.267 C 287.083 143.020,285.470 142.423,283.716 142.111 C 282.704 141.931,282.915 142.082,284.483 142.658 M288.112 143.963 C 290.388 144.995,292.102 146.716,292.711 148.583 C 293.320 150.448,293.321 150.449,293.131 148.901 C 292.874 146.806,289.502 143.410,287.752 143.484 C 287.352 143.501,287.486 143.680,288.112 143.963 M153.200 149.005 C 149.684 149.916,145.699 152.804,144.031 155.650 C 142.377 158.473,143.029 158.834,144.779 156.064 C 146.122 153.937,148.076 152.158,150.330 151.008 C 152.175 150.067,158.142 148.965,158.475 149.504 C 158.592 149.695,159.133 149.850,159.675 149.850 C 161.309 149.850,165.153 152.053,166.982 154.037 C 173.111 160.686,171.495 171.362,163.682 175.843 C 162.558 176.488,161.887 177.017,162.191 177.019 C 164.171 177.033,169.394 171.907,170.046 169.310 C 170.213 168.642,170.487 168.345,170.772 168.523 C 171.023 168.681,189.877 168.814,212.669 168.820 L 254.110 168.831 253.828 167.832 C 253.451 166.496,253.469 160.718,253.854 159.341 C 254.039 158.680,254.005 158.242,253.769 158.242 C 253.015 158.242,252.453 161.616,252.656 164.931 L 252.858 168.224 212.243 168.328 C 189.905 168.385,171.528 168.397,171.405 168.355 C 171.282 168.313,171.294 167.257,171.431 166.009 C 172.587 155.512,162.912 146.489,153.200 149.005 M264.336 148.891 C 261.624 149.561,258.187 151.643,256.223 153.805 C 254.834 155.334,253.618 157.449,253.947 157.763 C 254.108 157.917,254.443 157.698,254.692 157.279 C 257.712 152.184,266.395 147.596,269.404 149.504 C 269.693 149.688,270.240 149.841,270.618 149.844 C 276.883 149.900,283.343 160.620,281.158 167.333 C 280.834 168.327,282.854 168.545,285.514 167.803 C 286.365 167.566,286.057 167.529,284.452 167.675 L 282.190 167.881 282.201 164.160 C 282.228 154.462,273.159 146.710,264.336 148.891 M155.345 153.736 C 156.059 153.824,157.228 153.824,157.942 153.736 C 158.656 153.647,158.072 153.574,156.643 153.574 C 155.215 153.574,154.630 153.647,155.345 153.736 M266.034 153.736 C 266.748 153.824,267.917 153.824,268.631 153.736 C 269.346 153.647,268.761 153.574,267.333 153.574 C 265.904 153.574,265.320 153.647,266.034 153.736 M151.931 154.513 C 146.180 157.347,144.635 165.510,148.946 170.283 C 150.335 171.819,153.312 173.694,153.718 173.288 C 153.825 173.181,153.133 172.744,152.181 172.315 C 144.985 169.081,145.184 158.557,152.514 154.690 C 154.334 153.730,153.830 153.577,151.931 154.513 M159.441 154.035 C 159.441 154.145,160.112 154.515,160.932 154.858 C 162.894 155.678,165.343 158.428,165.899 160.435 C 166.143 161.317,166.423 161.812,166.522 161.536 C 166.801 160.757,165.187 157.747,163.741 156.347 C 162.572 155.216,159.441 153.533,159.441 154.035 M263.337 154.140 C 261.400 154.884,258.488 157.988,257.987 159.840 C 257.802 160.526,257.968 160.382,258.516 159.384 C 259.548 157.505,261.446 155.620,263.280 154.650 C 264.643 153.930,264.677 153.625,263.337 154.140 M270.130 154.049 C 270.130 154.161,270.850 154.540,271.730 154.892 C 272.610 155.244,273.786 156.075,274.344 156.738 C 274.901 157.400,275.434 157.866,275.527 157.773 C 275.857 157.443,273.671 155.433,272.127 154.645 C 270.503 153.816,270.130 153.705,270.130 154.049 M292.693 156.525 C 292.521 158.019,292.421 160.432,292.469 161.887 C 292.576 165.120,291.714 166.358,288.911 166.999 L 287.113 167.410 289.097 167.261 C 292.303 167.020,292.732 166.177,293.033 159.529 C 293.304 153.524,293.171 152.351,292.693 156.525 M152.947 155.473 C 151.095 156.449,151.096 156.536,152.964 158.360 C 155.134 160.480,155.506 160.327,155.364 157.374 C 155.228 154.555,155.011 154.385,152.947 155.473 M158.109 154.912 C 157.737 155.283,157.786 159.132,158.169 159.736 C 158.391 160.086,159.005 159.698,160.261 158.412 C 162.031 156.600,161.958 155.445,160.074 155.445 C 159.848 155.445,160.077 155.735,160.584 156.090 L 161.506 156.736 160.195 158.088 C 158.461 159.877,158.242 159.805,158.242 157.443 C 158.242 155.899,158.384 155.445,158.865 155.445 C 159.207 155.445,159.377 155.265,159.241 155.045 C 158.956 154.583,158.491 154.529,158.109 154.912 M264.735 155.045 C 264.599 155.265,264.769 155.445,265.111 155.445 C 265.596 155.445,265.734 155.908,265.734 157.536 L 265.734 159.627 264.236 158.114 C 262.788 156.653,262.764 156.581,263.513 156.023 C 263.940 155.705,264.087 155.445,263.841 155.445 C 262.202 155.445,262.087 156.757,263.591 158.297 C 265.748 160.507,266.134 160.347,266.134 157.243 C 266.134 154.739,265.520 153.775,264.735 155.045 M268.798 154.912 C 268.356 155.354,268.499 159.373,268.967 159.663 C 269.452 159.962,272.527 157.152,272.527 156.409 C 272.527 156.150,272.123 155.835,271.628 155.711 C 270.759 155.492,270.755 155.504,271.506 156.065 C 272.259 156.627,272.242 156.688,270.928 158.043 C 269.147 159.880,268.931 159.815,268.931 157.443 C 268.931 155.639,269.018 155.444,269.830 155.438 C 270.557 155.433,270.615 155.358,270.130 155.045 C 269.415 154.583,269.153 154.557,268.798 154.912 M155.045 157.443 C 155.045 159.787,154.985 159.816,153.433 158.228 C 152.063 156.826,151.983 156.438,152.947 155.876 C 154.542 154.947,155.045 155.323,155.045 157.443 M142.496 158.580 C 142.038 159.319,141.792 162.150,142.165 162.380 C 142.384 162.516,142.668 161.935,142.806 161.067 C 142.943 160.211,143.165 159.225,143.299 158.876 C 143.549 158.224,142.870 157.974,142.496 158.580 M276.418 159.844 C 276.764 160.726,277.120 161.375,277.209 161.286 C 277.401 161.094,276.247 158.242,275.977 158.242 C 275.873 158.242,276.072 158.963,276.418 159.844 M148.462 159.820 C 148.126 160.469,147.866 161.323,147.884 161.718 C 147.901 162.114,148.186 161.673,148.516 160.739 C 148.847 159.805,149.296 159.041,149.515 159.041 C 150.011 159.041,152.037 161.041,152.351 161.842 C 152.552 162.355,152.589 162.351,152.616 161.817 C 152.652 161.113,150.259 158.641,149.542 158.641 C 149.283 158.641,148.797 159.172,148.462 159.820 M161.719 160.157 C 160.208 161.705,159.931 162.238,160.639 162.238 C 160.859 162.238,161.039 162.052,161.039 161.825 C 161.039 161.344,163.311 159.041,163.786 159.041 C 163.963 159.041,164.353 159.785,164.653 160.694 C 164.953 161.602,165.261 162.159,165.338 161.930 C 165.571 161.230,164.312 158.641,163.738 158.641 C 163.442 158.641,162.533 159.323,161.719 160.157 M259.574 159.297 C 259.356 159.866,259.410 159.881,259.983 159.405 C 260.565 158.922,260.829 159.065,262.190 160.598 C 263.041 161.557,263.736 162.228,263.736 162.091 C 263.736 160.646,260.015 158.149,259.574 159.297 M272.411 160.305 C 271.595 161.220,271.003 162.045,271.097 162.139 C 271.190 162.232,271.931 161.574,272.743 160.675 C 274.420 158.818,274.764 158.703,275.134 159.870 C 275.480 160.959,275.760 160.662,275.462 159.523 C 275.113 158.189,274.058 158.459,272.411 160.305 M155.844 160.639 C 155.844 161.241,156.053 161.457,156.543 161.362 C 156.928 161.288,157.243 160.963,157.243 160.639 C 157.243 160.316,156.928 159.990,156.543 159.916 C 156.053 159.822,155.844 160.038,155.844 160.639 M266.733 160.240 C 266.399 160.781,266.850 161.439,267.556 161.439 C 267.873 161.439,268.132 161.079,268.132 160.639 C 268.132 159.812,267.168 159.537,266.733 160.240 M258.808 160.506 C 258.661 160.653,258.553 161.147,258.567 161.605 C 258.590 162.371,258.623 162.360,258.975 161.480 C 259.366 160.502,259.285 160.029,258.808 160.506 M257.173 162.537 C 257.040 163.362,257.099 164.575,257.303 165.235 C 257.617 166.249,257.679 166.019,257.708 163.736 C 257.746 160.735,257.537 160.266,257.173 162.537 M266.471 162.618 C 265.710 163.242,265.617 163.523,265.975 164.111 C 266.520 165.008,268.124 165.291,268.580 164.570 C 269.671 162.850,268.034 161.335,266.471 162.618 M155.460 162.818 C 154.289 164.229,156.243 165.796,157.684 164.601 C 158.413 163.996,158.263 162.573,157.443 162.304 C 156.930 162.136,156.922 162.204,157.387 162.767 C 158.095 163.624,157.692 164.635,156.643 164.635 C 155.503 164.635,155.130 163.456,156.055 162.779 C 156.463 162.481,156.604 162.238,156.369 162.238 C 156.134 162.238,155.725 162.499,155.460 162.818 M268.399 164.005 C 268.088 164.816,266.581 164.824,266.271 164.017 C 265.908 163.071,267.363 162.120,268.087 162.831 C 268.391 163.130,268.532 163.658,268.399 164.005 M277.423 163.636 C 277.428 164.515,277.510 164.828,277.605 164.331 C 277.701 163.834,277.697 163.115,277.597 162.733 C 277.497 162.351,277.419 162.757,277.423 163.636 M122.278 163.438 C 123.214 164.158,125.369 164.880,125.665 164.573 C 125.738 164.498,124.781 164.038,123.538 163.553 C 121.497 162.756,121.375 162.745,122.278 163.438 M153.265 163.007 C 153.140 163.210,153.354 163.459,153.741 163.560 C 154.407 163.733,154.407 163.746,153.746 163.790 C 152.916 163.845,152.792 164.635,153.613 164.635 C 154.253 164.635,154.619 163.885,154.344 163.137 C 154.128 162.549,153.589 162.484,153.265 163.007 M159.117 163.145 C 158.389 164.023,159.247 164.999,160.046 164.201 C 160.590 163.657,160.599 163.501,160.113 163.098 C 159.676 162.735,159.449 162.746,159.117 163.145 M263.870 163.264 C 263.554 164.087,264.383 164.948,264.948 164.383 C 265.406 163.925,265.061 162.637,264.480 162.637 C 264.277 162.637,264.003 162.919,263.870 163.264 M269.791 163.164 C 269.424 163.606,269.457 163.843,269.942 164.246 C 270.875 165.020,271.735 164.071,270.878 163.214 C 270.348 162.684,270.195 162.677,269.791 163.164 M142.105 164.935 C 141.877 165.618,141.498 165.833,140.533 165.830 C 139.270 165.826,131.317 165.212,127.872 164.852 C 126.307 164.689,126.230 164.713,127.273 165.042 C 127.932 165.250,131.584 165.635,135.389 165.899 L 142.306 166.378 142.534 167.513 C 142.658 168.137,142.936 168.757,143.151 168.890 C 143.385 169.034,143.439 168.806,143.286 168.323 C 143.145 167.879,142.889 166.733,142.718 165.776 C 142.452 164.294,142.362 164.169,142.105 164.935 M147.852 165.608 C 147.852 168.322,149.460 169.167,151.275 167.407 C 153.279 165.465,153.093 165.035,150.250 165.035 C 148.433 165.035,147.852 165.174,147.852 165.608 M160.240 165.234 C 160.240 165.715,163.183 168.631,163.669 168.631 C 164.233 168.631,165.243 167.108,164.904 166.769 C 164.796 166.661,164.590 166.946,164.445 167.402 C 164.300 167.859,164.020 168.232,163.823 168.232 C 163.439 168.232,161.039 166.004,161.039 165.648 C 161.039 165.180,164.976 165.453,165.170 165.934 C 165.290 166.232,165.384 166.152,165.403 165.734 C 165.430 165.137,165.056 165.035,162.837 165.035 C 161.409 165.035,160.240 165.124,160.240 165.234 M258.541 165.811 C 258.541 166.237,258.741 166.709,258.984 166.860 C 259.282 167.044,259.338 166.855,259.157 166.284 C 258.906 165.494,259.029 165.435,260.912 165.435 C 263.240 165.435,263.366 165.674,261.816 167.158 C 260.593 168.330,259.917 168.506,259.605 167.732 C 259.447 167.341,259.397 167.344,259.372 167.745 C 259.302 168.880,260.622 168.708,261.964 167.407 C 263.968 165.465,263.782 165.035,260.939 165.035 C 258.832 165.035,258.541 165.129,258.541 165.811 M271.329 165.434 C 271.329 166.166,274.313 169.015,274.771 168.719 C 275.016 168.561,275.332 167.982,275.473 167.433 C 275.724 166.452,275.720 166.450,275.266 167.333 C 274.660 168.510,274.525 168.481,272.927 166.833 L 271.571 165.435 273.615 165.435 C 274.875 165.435,275.735 165.626,275.859 165.934 C 275.980 166.232,276.073 166.152,276.092 165.734 C 276.119 165.142,275.755 165.035,273.726 165.035 C 272.398 165.035,271.329 165.213,271.329 165.434 M152.248 165.736 C 152.248 166.168,149.997 168.232,149.526 168.232 C 149.213 168.232,148.252 166.226,148.252 165.575 C 148.252 165.498,149.151 165.435,150.250 165.435 C 151.349 165.435,152.248 165.570,152.248 165.736 M155.844 166.633 C 155.844 167.235,156.053 167.451,156.543 167.356 C 156.928 167.282,157.243 166.957,157.243 166.633 C 157.243 166.310,156.928 165.984,156.543 165.910 C 156.053 165.816,155.844 166.032,155.844 166.633 M166.129 166.107 C 166.028 166.287,165.837 166.883,165.706 167.433 C 165.381 168.793,162.786 171.544,160.839 172.592 C 159.855 173.121,159.625 173.352,160.240 173.193 C 162.348 172.647,165.278 169.747,166.218 167.275 C 166.621 166.214,166.556 165.353,166.129 166.107 M266.733 166.234 C 266.399 166.775,266.850 167.433,267.556 167.433 C 267.873 167.433,268.132 167.073,268.132 166.633 C 268.132 165.806,267.168 165.531,266.733 166.234 M276.376 167.550 C 275.603 169.575,273.600 171.649,271.450 172.653 C 270.614 173.043,270.220 173.376,270.574 173.394 C 272.593 173.496,278.327 167.104,277.214 165.992 C 277.117 165.895,276.741 166.596,276.376 167.550 M257.982 167.433 C 258.927 170.997,263.342 173.883,267.665 173.763 L 269.930 173.700 267.333 173.434 C 263.088 172.998,260.391 171.302,258.516 167.889 C 257.961 166.878,257.798 166.739,257.982 167.433 M152.913 169.064 C 151.115 171.066,151.114 171.121,152.861 171.954 C 155.247 173.092,155.445 172.945,155.445 170.030 C 155.445 166.896,155.008 166.730,152.913 169.064 M158.109 167.699 C 157.699 168.109,157.793 172.150,158.218 172.413 C 158.724 172.725,161.838 171.351,161.838 170.816 C 161.838 170.391,158.999 167.433,158.591 167.433 C 158.472 167.433,158.255 167.552,158.109 167.699 M263.769 169.000 C 261.807 170.885,261.812 170.842,263.437 171.833 C 265.749 173.242,266.134 172.985,266.134 170.030 C 266.134 166.995,265.942 166.911,263.769 169.000 M268.798 167.699 C 268.388 168.109,268.482 172.150,268.908 172.413 C 269.413 172.725,272.527 171.351,272.527 170.816 C 272.527 170.391,269.688 167.433,269.281 167.433 C 269.162 167.433,268.944 167.552,268.798 167.699 M154.769 171.855 C 154.591 172.028,153.829 171.909,153.076 171.589 L 151.706 171.008 153.276 169.397 L 154.845 167.786 154.969 169.663 C 155.037 170.695,154.948 171.682,154.769 171.855 M160.463 171.250 C 158.862 172.443,158.242 172.021,158.242 169.737 L 158.242 167.646 159.740 169.159 C 161.188 170.620,161.212 170.691,160.463 171.250 M265.578 171.660 C 265.416 172.081,265.106 172.106,264.154 171.775 C 262.611 171.237,262.625 170.790,264.236 169.123 L 265.534 167.779 265.660 169.450 C 265.728 170.369,265.692 171.363,265.578 171.660 M271.072 169.591 C 272.023 170.838,272.030 170.898,271.298 171.355 C 269.599 172.416,268.931 171.989,268.931 169.843 C 268.931 167.539,269.459 167.477,271.072 169.591 M279.753 170.449 C 274.858 179.677,260.726 180.106,255.498 171.186 C 254.921 170.201,254.354 169.489,254.239 169.604 C 253.918 169.925,255.839 172.645,257.584 174.341 C 262.883 179.494,272.346 179.405,277.392 174.154 C 279.370 172.094,281.050 169.623,280.859 169.050 C 280.782 168.819,280.284 169.449,279.753 170.449 M145.236 172.727 C 147.904 176.859,158.614 180.043,161.154 177.460 C 161.537 177.069,161.388 177.035,160.440 177.293 C 155.721 178.579,150.470 177.144,146.536 173.493 C 145.108 172.167,144.732 171.946,145.236 172.727 M155.345 173.716 C 156.059 173.804,157.228 173.804,157.942 173.716 C 158.656 173.627,158.072 173.554,156.643 173.554 C 155.215 173.554,154.630 173.627,155.345 173.716 M122.861 223.477 C 122.755 223.751,122.718 233.057,122.777 244.156 L 122.885 264.336 122.981 243.856 L 123.077 223.377 128.671 223.377 L 134.266 223.377 134.272 231.269 C 134.279 240.387,134.372 240.730,136.287 238.694 L 137.662 237.230 136.402 238.096 C 135.709 238.572,135.034 238.961,134.903 238.961 C 134.772 238.961,134.665 235.365,134.665 230.969 L 134.665 222.977 128.859 222.977 C 124.582 222.977,123.001 223.109,122.861 223.477 M162.376 223.283 C 162.122 223.444,163.139 223.576,164.635 223.576 C 166.132 223.576,167.149 223.444,166.895 223.283 C 166.641 223.121,165.624 222.989,164.635 222.989 C 163.646 222.989,162.630 223.121,162.376 223.283 M159.694 224.604 C 159.115 225.060,158.647 225.644,158.654 225.903 C 158.662 226.188,158.859 226.130,159.154 225.756 C 159.421 225.416,160.085 224.832,160.628 224.457 C 161.172 224.083,161.421 223.776,161.182 223.776 C 160.943 223.776,160.273 224.149,159.694 224.604 M169.308 224.852 C 171.303 226.728,171.593 229.961,169.946 231.945 C 169.553 232.418,169.725 232.300,170.330 231.681 C 172.258 229.708,171.485 225.480,168.952 224.139 C 168.267 223.777,168.358 223.959,169.308 224.852 M53.247 225.672 C 54.950 225.747,57.737 225.747,59.441 225.672 C 61.144 225.597,59.750 225.535,56.344 225.535 C 52.937 225.535,51.543 225.597,53.247 225.672 M78.014 225.760 L 85.098 225.974 83.592 228.372 C 80.700 232.976,80.170 233.906,80.587 233.648 C 81.011 233.386,85.514 226.035,85.514 225.605 C 85.514 225.478,82.233 225.413,78.222 225.461 L 70.929 225.546 78.014 225.760 M226.667 237.862 L 226.761 250.350 226.873 238.062 L 226.985 225.774 232.767 225.774 L 238.550 225.774 238.662 237.662 L 238.774 249.550 238.867 237.463 L 238.961 225.375 232.767 225.375 L 226.573 225.375 226.667 237.862 M249.266 238.062 C 249.192 245.040,248.974 251.109,248.782 251.548 C 248.489 252.221,248.522 252.265,248.992 251.829 C 249.443 251.410,249.574 248.843,249.671 238.542 L 249.792 225.774 255.598 225.774 L 261.404 225.774 261.233 239.061 C 261.138 246.369,260.939 252.797,260.789 253.347 L 260.517 254.346 261.013 253.347 C 261.369 252.629,261.549 248.544,261.652 238.861 L 261.795 225.375 255.598 225.375 L 249.401 225.375 249.266 238.062 M265.507 225.901 C 265.396 226.191,265.364 228.304,265.435 230.596 L 265.566 234.765 265.650 230.270 L 265.734 225.774 282.517 225.774 L 299.301 225.774 299.301 230.159 L 299.301 234.543 293.806 234.654 L 288.312 234.765 288.207 249.650 C 288.138 259.496,288.239 264.535,288.507 264.535 C 288.772 264.535,288.911 259.463,288.911 249.762 L 288.911 234.988 294.206 234.877 L 299.500 234.765 299.613 230.070 L 299.726 225.375 282.717 225.375 C 269.014 225.375,265.670 225.477,265.507 225.901 M304.192 245.055 L 304.288 264.735 304.396 245.255 L 304.503 225.774 310.000 225.774 L 315.496 225.774 319.217 230.769 C 321.264 233.516,323.036 235.764,323.156 235.764 C 323.276 235.764,323.201 235.539,322.989 235.265 C 322.777 234.990,321.028 232.652,319.104 230.070 L 315.604 225.375 309.850 225.375 L 304.096 225.375 304.192 245.055 M330.869 235.588 C 330.869 242.216,330.730 245.716,330.474 245.557 C 330.248 245.417,330.181 245.578,330.317 245.933 C 331.047 247.836,331.269 245.561,331.269 236.164 L 331.269 225.774 336.671 225.774 L 342.073 225.774 341.966 245.155 C 341.906 255.814,341.993 264.536,342.158 264.536 C 342.323 264.536,342.458 255.724,342.458 244.955 L 342.458 225.375 336.663 225.375 L 330.869 225.375 330.869 235.588 M70.344 226.947 C 69.837 227.893,69.814 228.291,70.281 228.002 C 70.634 227.784,71.184 226.174,70.906 226.174 C 70.824 226.174,70.571 226.522,70.344 226.947 M66.798 234.393 C 65.444 237.157,64.345 239.541,64.356 239.689 C 64.368 239.838,65.548 237.648,66.978 234.823 C 68.409 231.997,69.507 229.614,69.420 229.526 C 69.332 229.439,68.153 231.629,66.798 234.393 M159.082 231.735 C 160.496 233.967,166.671 235.099,168.324 233.429 C 168.736 233.013,168.620 232.996,167.706 233.341 C 164.959 234.379,161.583 233.781,159.654 231.915 C 158.611 230.906,158.543 230.884,159.082 231.735 M79.817 234.439 C 79.717 234.618,79.142 235.619,78.541 236.663 C 77.939 237.707,77.527 238.561,77.625 238.561 C 77.924 238.561,80.363 234.475,80.175 234.288 C 80.079 234.191,79.918 234.259,79.817 234.439 M271.029 234.858 L 276.124 234.989 276.124 249.762 C 276.124 259.463,276.263 264.535,276.528 264.535 C 276.796 264.535,276.897 259.496,276.828 249.650 L 276.723 234.765 271.329 234.746 L 265.934 234.727 271.029 234.858 M141.375 235.692 C 141.000 235.842,142.157 235.969,143.946 235.976 C 145.758 235.982,146.769 235.867,146.227 235.716 C 144.957 235.361,142.241 235.348,141.375 235.692 M99.004 242.057 C 99.195 252.965,99.339 254.002,99.420 245.055 C 99.464 240.165,99.366 236.164,99.201 236.163 C 99.036 236.163,98.948 238.815,99.004 242.057 M105.575 245.055 C 105.656 254.002,105.800 252.965,105.991 242.057 C 106.047 238.815,105.959 236.163,105.794 236.163 C 105.629 236.164,105.531 240.165,105.575 245.055 M148.726 236.947 C 150.479 237.909,152.610 240.344,153.333 242.213 C 153.833 243.504,153.844 243.510,153.618 242.358 C 153.189 240.169,150.296 236.962,148.252 236.409 C 147.578 236.226,147.732 236.401,148.726 236.947 M158.728 250.450 C 158.776 258.307,158.865 262.488,158.926 259.740 C 159.207 247.113,159.214 236.163,158.941 236.163 C 158.776 236.164,158.680 242.592,158.728 250.450 M170.132 245.454 C 170.188 250.564,170.283 256.993,170.345 259.740 C 170.406 262.488,170.495 258.307,170.543 250.450 C 170.590 242.592,170.495 236.164,170.330 236.163 C 170.165 236.163,170.076 240.344,170.132 245.454 M173.826 236.648 C 173.826 236.987,174.125 237.512,174.491 237.813 C 175.099 238.315,175.112 238.276,174.637 237.363 C 173.940 236.023,173.826 235.922,173.826 236.648 M324.158 237.463 C 324.695 238.177,326.176 240.155,327.451 241.858 C 329.509 244.610,330.647 245.856,329.823 244.456 C 329.212 243.417,323.582 236.164,323.386 236.164 C 323.274 236.164,323.621 236.748,324.158 237.463 M194.271 238.379 C 193.601 239.848,193.729 240.162,194.453 238.826 C 194.791 238.202,194.993 237.617,194.901 237.525 C 194.810 237.434,194.526 237.818,194.271 238.379 M206.113 239.061 C 204.883 240.699,204.493 241.359,204.752 241.359 C 204.865 241.359,205.513 240.549,206.194 239.560 C 207.619 237.489,207.561 237.132,206.113 239.061 M175.273 239.061 C 177.204 242.322,179.911 246.553,180.068 246.553 C 180.296 246.553,180.368 246.681,177.526 242.058 C 176.344 240.135,175.287 238.561,175.177 238.561 C 175.067 238.561,175.111 238.786,175.273 239.061 M188.744 239.860 C 189.466 241.585,190.969 244.422,190.991 244.101 C 191.017 243.733,188.568 238.561,188.369 238.561 C 188.276 238.561,188.446 239.146,188.744 239.860 M63.469 241.146 C 63.222 241.689,62.866 242.038,62.679 241.922 C 62.491 241.806,62.338 242.201,62.338 242.800 C 62.338 243.399,62.405 243.815,62.488 243.723 C 62.878 243.292,64.326 240.160,64.135 240.160 C 64.016 240.160,63.717 240.604,63.469 241.146 M193.018 241.129 C 192.424 242.691,192.542 242.937,193.254 241.623 C 193.592 240.999,193.770 240.390,193.649 240.269 C 193.528 240.148,193.244 240.535,193.018 241.129 M201.631 245.642 L 199.027 249.525 200.066 251.336 C 200.638 252.332,201.272 253.327,201.475 253.546 C 202.111 254.233,201.301 252.442,200.325 251.002 C 199.823 250.261,199.530 249.452,199.674 249.203 C 199.818 248.955,200.858 247.403,201.986 245.754 C 204.489 242.097,204.697 241.758,204.439 241.758 C 204.327 241.758,203.063 243.506,201.631 245.642 M314.945 243.856 C 315.003 245.111,315.011 245.117,315.174 244.024 L 315.344 242.892 316.813 244.888 C 328.337 260.542,332.894 266.518,331.388 264.001 C 330.329 262.230,315.497 242.557,315.221 242.557 C 315.036 242.557,314.912 243.142,314.945 243.856 M74.592 243.223 C 74.231 243.584,74.254 244.864,74.625 245.093 C 74.790 245.195,74.925 244.756,74.925 244.118 C 74.925 243.479,74.910 242.957,74.892 242.957 C 74.873 242.957,74.739 243.077,74.592 243.223 M192.018 243.726 C 191.873 244.182,191.587 244.555,191.382 244.555 C 191.177 244.555,191.009 244.836,191.009 245.178 C 191.009 245.521,191.200 245.683,191.433 245.539 C 191.925 245.236,192.714 243.330,192.455 243.071 C 192.359 242.975,192.162 243.270,192.018 243.726 M136.568 244.585 C 136.186 244.807,135.680 245.386,135.443 245.871 L 135.011 246.753 135.737 245.897 C 138.567 242.559,141.899 244.620,142.288 249.950 L 142.522 253.147 142.590 250.230 C 142.706 245.224,139.933 242.625,136.568 244.585 M154.345 249.550 C 154.341 253.604,154.371 253.779,154.731 251.800 C 154.983 250.411,154.985 248.859,154.735 247.404 C 154.372 245.295,154.348 245.429,154.345 249.550 M62.338 246.753 C 62.338 247.376,62.449 247.774,62.586 247.637 C 62.722 247.501,63.644 248.955,64.634 250.868 C 65.625 252.780,66.610 254.525,66.824 254.745 C 67.175 255.105,62.861 246.187,62.492 245.788 C 62.407 245.696,62.338 246.131,62.338 246.753 M134.508 247.585 C 133.565 250.042,134.838 255.665,136.479 256.294 C 137.585 256.719,137.609 256.574,136.572 255.758 C 135.058 254.567,134.554 252.922,134.733 249.757 C 134.902 246.764,134.885 246.603,134.508 247.585 M181.161 248.688 L 182.177 250.423 181.263 251.785 C 179.440 254.500,178.933 255.345,179.128 255.345 C 179.237 255.345,180.079 254.190,180.999 252.779 L 182.670 250.213 181.592 248.583 C 180.164 246.425,179.875 246.495,181.161 248.688 M238.961 250.485 C 238.961 254.600,246.928 256.713,248.361 252.978 C 248.498 252.621,248.176 252.761,247.588 253.314 C 245.252 255.508,241.356 254.726,239.860 251.762 C 239.366 250.782,238.961 250.207,238.961 250.485 M227.016 251.349 C 226.976 252.394,227.731 255.520,227.966 255.282 C 228.041 255.207,227.867 254.066,227.579 252.747 C 227.291 251.429,227.037 250.799,227.016 251.349 M79.137 252.547 C 79.941 254.113,85.200 262.692,85.628 263.137 C 86.195 263.727,85.507 262.474,82.341 257.149 C 79.741 252.778,77.885 250.112,79.137 252.547 M87.683 255.790 C 87.754 257.243,88.025 258.772,88.287 259.186 C 88.695 259.834,88.723 259.772,88.488 258.741 C 88.338 258.082,88.066 256.553,87.885 255.345 L 87.555 253.147 87.683 255.790 M141.858 253.719 C 141.858 253.997,141.274 254.774,140.559 255.446 C 139.653 256.299,139.532 256.524,140.160 256.192 C 141.197 255.643,142.487 253.842,142.112 253.467 C 141.972 253.328,141.858 253.441,141.858 253.719 M99.513 254.357 C 99.494 254.991,100.690 256.543,101.198 256.543 C 101.447 256.543,101.370 256.319,101.025 256.044 C 100.681 255.769,100.202 255.185,99.962 254.745 C 99.722 254.306,99.519 254.131,99.513 254.357 M202.826 255.991 C 204.779 259.380,207.057 262.937,207.275 262.937 C 207.390 262.937,207.222 262.532,206.902 262.038 C 206.581 261.543,205.467 259.657,204.425 257.845 C 203.383 256.034,202.344 254.436,202.117 254.295 C 201.889 254.155,202.208 254.917,202.826 255.991 M259.790 255.994 C 259.526 256.573,259.402 257.138,259.514 257.250 C 259.626 257.362,259.908 256.954,260.140 256.344 C 260.372 255.733,260.496 255.168,260.416 255.088 C 260.335 255.007,260.054 255.415,259.790 255.994 M67.133 255.551 C 67.133 255.878,69.588 260.140,69.777 260.140 C 69.871 260.140,69.386 259.061,68.699 257.742 C 67.572 255.576,67.133 254.962,67.133 255.551 M190.077 255.611 C 189.930 255.758,189.810 256.130,189.810 256.439 C 189.810 256.904,189.913 256.897,190.410 256.401 C 190.739 256.071,191.009 255.699,191.009 255.573 C 191.009 255.260,190.403 255.285,190.077 255.611 M153.115 256.919 C 152.856 257.663,152.729 258.357,152.834 258.462 C 153.101 258.729,153.904 256.516,153.730 255.994 C 153.651 255.759,153.375 256.175,153.115 256.919 M178.333 256.244 C 177.552 257.254,177.285 257.874,177.758 257.582 C 178.231 257.290,179.178 255.744,178.884 255.744 C 178.793 255.744,178.545 255.969,178.333 256.244 M228.412 256.543 C 229.193 259.499,233.495 263.397,236.963 264.291 C 237.512 264.432,237.031 264.112,235.894 263.579 C 233.268 262.347,230.381 259.695,229.125 257.360 C 228.588 256.361,228.267 255.994,228.412 256.543 M191.027 256.656 C 190.992 257.267,192.222 259.859,192.442 259.640 C 192.565 259.517,192.300 258.725,191.855 257.880 C 191.409 257.035,191.036 256.484,191.027 256.656 M189.411 257.427 C 189.411 257.547,189.138 258.296,188.806 259.092 C 188.473 259.888,188.303 260.539,188.427 260.539 C 188.776 260.539,189.886 257.684,189.634 257.433 C 189.511 257.310,189.411 257.307,189.411 257.427 M258.168 259.098 C 257.078 260.862,254.956 262.457,252.180 263.599 C 250.953 264.104,250.220 264.517,250.549 264.517 C 252.530 264.520,257.366 261.223,258.664 258.987 C 259.641 257.303,259.219 257.397,258.168 259.098 M175.283 260.934 C 174.262 262.470,173.427 263.861,173.427 264.026 C 173.427 264.190,174.026 263.428,174.759 262.332 C 177.058 258.896,177.520 258.142,177.327 258.142 C 177.224 258.142,176.305 259.398,175.283 260.934 M150.705 260.970 C 149.746 262.067,148.307 263.323,147.508 263.762 C 146.489 264.322,146.353 264.483,147.053 264.300 C 148.412 263.944,151.089 261.704,151.971 260.185 C 152.942 258.511,152.752 258.629,150.705 260.970 M192.636 260.340 C 192.636 260.559,192.893 261.189,193.207 261.738 C 193.521 262.288,193.778 262.557,193.778 262.338 C 193.778 262.118,193.521 261.489,193.207 260.939 C 192.893 260.390,192.636 260.120,192.636 260.340 M104.458 261.397 C 104.039 261.869,102.995 262.768,102.138 263.395 C 101.281 264.022,100.751 264.535,100.961 264.535 C 101.551 264.535,103.912 262.692,104.641 261.662 C 105.288 260.749,105.297 260.760,105.532 262.737 L 105.769 264.735 105.831 262.637 C 105.900 260.346,105.617 260.091,104.458 261.397 M89.111 261.260 C 89.111 261.671,91.850 264.339,92.035 264.109 C 92.112 264.014,91.485 263.262,90.643 262.438 C 89.800 261.613,89.111 261.084,89.111 261.260 M187.246 262.571 C 186.880 263.486,186.655 264.311,186.746 264.402 C 186.838 264.494,187.213 263.819,187.579 262.904 C 187.945 261.988,188.170 261.164,188.079 261.072 C 187.987 260.981,187.612 261.655,187.246 262.571 M134.518 261.946 C 134.379 262.307,134.287 263.083,134.312 263.669 C 134.347 264.473,134.402 264.539,134.535 263.936 C 134.950 262.060,135.038 262.031,136.480 263.297 C 137.255 263.978,138.104 264.535,138.365 264.535 C 138.626 264.535,138.395 264.238,137.851 263.875 C 137.308 263.511,136.392 262.781,135.816 262.252 C 134.902 261.411,134.738 261.372,134.518 261.946 M94.044 265.029 C 94.298 265.190,95.584 265.322,96.903 265.322 C 98.222 265.322,99.508 265.190,99.762 265.029 C 100.016 264.867,98.729 264.735,96.903 264.735 C 95.077 264.735,93.790 264.867,94.044 265.029 M139.599 265.029 C 139.852 265.190,141.139 265.322,142.458 265.322 C 143.776 265.322,145.063 265.190,145.316 265.029 C 145.570 264.867,144.284 264.735,142.458 264.735 C 140.631 264.735,139.345 264.867,139.599 265.029 M239.499 265.029 C 239.752 265.190,241.848 265.322,244.156 265.322 C 246.464 265.322,248.559 265.190,248.813 265.029 C 249.067 264.867,246.971 264.735,244.156 264.735 C 241.341 264.735,239.245 264.867,239.499 265.029 " stroke="none" fill="#d4cccc" fill-rule="evenodd"></path></g></svg>